<svg xmlns="http://www.w3.org/2000/svg" viewBox="0 0 1060 204" preserveAspectRatio="xMidYMid meet"><defs><marker id="em-a" markerWidth="7" markerHeight="7" refX="5.5" refY="3" orient="auto"><path d="M0,0 L6,3 L0,6 Z" fill="#94A3B8"/></marker></defs><rect x="0" y="8" width="280" height="40" rx="10" fill="#fff" stroke="#E6E9EF" stroke-width="1.5"/><text x="140" y="33" font-size="12" font-weight="500" fill="#001525" text-anchor="middle" font-family="'IBM Plex Mono',monospace">&#8220;late deliveries and what is driving them&#8221;</text><path d="M280 28 L316 28" fill="none" stroke="#94A3B8" stroke-width="2" marker-end="url(#em-a)"/><rect x="0" y="60" width="280" height="40" rx="10" fill="#fff" stroke="#E6E9EF" stroke-width="1.5"/><text x="140" y="85" font-size="12" font-weight="500" fill="#001525" text-anchor="middle" font-family="'IBM Plex Mono',monospace">&#8220;on-time's been sliding since Q2&#8221;</text><path d="M280 80 L316 80" fill="none" stroke="#94A3B8" stroke-width="2" marker-end="url(#em-a)"/><rect x="0" y="112" width="280" height="40" rx="10" fill="#fff" stroke="#E6E9EF" stroke-width="1.5"/><text x="140" y="137" font-size="12" font-weight="500" fill="#001525" text-anchor="middle" font-family="'IBM Plex Mono',monospace">&#8220;driver onboarding and safety training&#8221;</text><path d="M280 132 L316 132" fill="none" stroke="#94A3B8" stroke-width="2" marker-end="url(#em-a)"/><rect x="320" y="52" width="200" height="60" rx="10" fill="#001525" stroke="#001525" stroke-width="1.5"/><text x="420" y="78" font-size="13.5" font-weight="700" fill="#fff" text-anchor="middle" font-family="'IBM Plex Mono',monospace">embed(text)</text><text x="420" y="100" font-size="12" font-weight="500" fill="#85B4FF" text-anchor="middle" font-family="'IBM Plex Mono',monospace">&#8594; vector float[768]</text><path d="M520 82 L556 82" fill="none" stroke="#94A3B8" stroke-width="2" marker-end="url(#em-a)"/><rect x="560" y="6" width="500" height="158" rx="10" fill="#fff" stroke="#E6E9EF" stroke-width="1.5"/><text x="578" y="28" font-size="11" font-weight="800" fill="#94A3B8"  letter-spacing="1.5">THE MAP OF MEANING</text><circle cx="720" cy="80" r="9" fill="#306BEA"/><circle cx="756" cy="98" r="9" fill="#306BEA"/><ellipse cx="738" cy="89" rx="64" ry="42" fill="none" stroke="#306BEA" stroke-width="1.5" stroke-dasharray="5 4"/><text x="738" y="148" font-size="12" font-weight="700" fill="#306BEA" text-anchor="middle" >driving factors · nearest neighbors</text><circle cx="985" cy="60" r="9" fill="#FE6703"/><text x="985" y="88" font-size="12" font-weight="700" fill="#FE6703" text-anchor="middle" >HR / onboarding</text><text x="0" y="194" font-size="13" font-weight="500" fill="#94A3B8" >Keyword search finds words. Embedding search finds meaning. On DuckDB this project has no embed() at all; only Snowflake, BigQuery, and Databricks run the real thing.</text></svg>